<mxfile host="app.diagrams.net" modified="2024-04-29T02:52:49.577Z" agent="Mozilla/5.0 (Macintosh; Intel Mac OS X 10_15_7) AppleWebKit/537.36 (KHTML, like Gecko) Chrome/123.0.0.0 Safari/537.36" version="24.2.5" etag="4_PAW6TAjT9p7oZ4Jsyb" type="github">
  <diagram name="第 1 页" id="9AA1wI817K12epab_biL">
    <mxGraphModel>
      <root>
        <mxCell id="0" />
        <mxCell id="1" parent="0" />
      </root>
    </mxGraphModel>
  </diagram>
</mxfile>
